<?xml version="1.0" standalone="no"?>
<!DOCTYPE svg PUBLIC "-//W3C//DTD SVG 20010904//EN"
 "http://www.w3.org/TR/2001/REC-SVG-20010904/DTD/svg10.dtd">
<svg version="1.0" xmlns="http://www.w3.org/2000/svg"
 width="280.000000pt" height="151.000000pt" viewBox="0 0 280.000000 151.000000"
 preserveAspectRatio="xMidYMid meet">

<g transform="translate(0.000000,151.000000) scale(0.100000,-0.100000)"
fill="#000000" stroke="none">
<path d="M942 1130 c3 -192 7 -243 18 -255 31 -30 38 -2 47 169 7 141 11 171
25 179 12 8 21 7 32 -2 13 -11 16 -34 16 -107 0 -81 2 -95 19 -103 14 -8 22
-6 35 8 13 14 16 41 16 143 l0 126 27 6 c17 5 29 3 34 -6 5 -7 9 -91 9 -186 0
-148 2 -173 16 -179 35 -13 44 18 51 175 6 150 6 152 29 152 13 0 25 -4 28 -8
3 -5 6 -52 7 -106 1 -82 4 -98 20 -106 33 -18 45 -3 46 62 1 69 20 96 54 77
16 -8 19 -22 19 -74 0 -76 6 -95 31 -95 27 0 39 38 39 120 0 67 6 82 38 86 23
4 30 -30 37 -179 7 -143 8 -148 29 -145 18 3 22 12 27 68 4 36 7 115 8 177 1
102 3 112 21 118 35 11 40 -3 40 -104 0 -87 2 -100 21 -117 20 -18 21 -18 35
1 11 15 14 53 12 180 l-3 160 -444 3 -443 2 4 -240z"/>
<path d="M1093 953 c-17 -6 2 -43 23 -43 20 0 30 30 13 41 -15 10 -18 10 -36
2z"/>
<path d="M1640 775 c0 -29 34 -36 44 -9 8 21 -1 34 -25 34 -14 0 -19 -7 -19
-25z"/>
<path d="M470 680 c-11 -11 -20 -29 -20 -40 0 -11 -7 -20 -15 -20 -9 0 -15 -9
-15 -25 0 -16 6 -25 15 -25 12 0 15 -16 15 -80 0 -79 0 -80 25 -80 25 0 25 1
25 80 0 79 0 80 25 80 20 0 25 5 25 25 0 18 -5 25 -20 25 -12 0 -20 7 -20 16
0 9 9 18 20 21 11 3 20 14 20 24 0 26 -53 26 -80 -1z"/>
<path d="M1220 550 l0 -140 30 0 30 0 0 140 0 140 -30 0 -30 0 0 -140z"/>
<path d="M193 660 c-60 -36 -80 -116 -47 -186 19 -39 91 -79 130 -71 18 3 30
-2 43 -19 13 -17 29 -24 52 -24 l33 0 -32 33 -32 33 27 26 c34 34 43 110 19
157 -22 42 -71 71 -121 71 -22 0 -54 -9 -72 -20z m117 -40 c31 -17 44 -72 26
-114 -33 -78 -136 -65 -152 19 -6 34 15 89 38 98 22 9 69 7 88 -3z"/>
<path d="M580 516 l0 -106 25 0 c14 0 26 3 26 8 1 4 2 30 4 59 2 57 15 80 48
85 30 4 38 58 9 58 -11 0 -25 -7 -32 -15 -15 -18 -31 -20 -27 -2 1 7 -10 13
-25 15 l-28 3 0 -105z"/>
<path d="M765 596 c-64 -64 -35 -172 51 -190 51 -11 124 29 124 68 0 14 -58 5
-64 -10 -9 -23 -65 -14 -84 14 l-14 22 81 0 81 0 0 31 c0 20 -10 40 -29 60
-39 39 -109 41 -146 5z m109 -32 c27 -26 18 -34 -40 -34 -56 0 -58 3 -31 38
13 17 52 15 71 -4z"/>
<path d="M1018 605 c-50 -27 -62 -130 -20 -169 33 -29 78 -39 117 -26 32 10
65 42 65 62 0 15 -58 8 -64 -8 -9 -23 -65 -14 -84 14 l-14 22 81 0 81 0 0 31
c0 46 -47 89 -97 89 -21 -1 -50 -7 -65 -15z m96 -41 c26 -26 18 -34 -34 -34
-34 0 -50 4 -50 13 0 35 56 50 84 21z"/>
<path d="M1359 607 c-46 -35 -54 -128 -15 -174 29 -34 92 -39 125 -9 19 17 21
17 21 3 0 -11 8 -17 25 -17 l25 0 0 105 0 105 -25 0 c-16 0 -25 -6 -25 -15 0
-8 -4 -15 -9 -15 -5 0 -14 7 -21 15 -15 18 -78 19 -101 2z m99 -43 c15 -10 22
-25 22 -49 0 -41 -24 -67 -58 -63 -54 6 -69 98 -19 118 30 12 30 12 55 -6z"/>
<path d="M1590 515 l0 -105 25 0 c24 0 25 2 25 65 0 52 4 69 20 85 23 23 33
24 61 10 16 -9 19 -22 19 -85 l0 -75 30 0 30 0 0 70 c0 74 -17 123 -45 134
-32 12 -75 6 -95 -14 l-20 -20 0 20 c0 15 -7 20 -25 20 l-25 0 0 -105z"/>
<path d="M1869 591 c-16 -16 -29 -40 -30 -53 -4 -78 13 -109 69 -127 52 -17
90 -5 120 40 l24 34 -29 3 c-19 3 -32 -2 -42 -17 -28 -43 -91 -13 -91 42 0 26
30 67 49 67 4 0 20 -9 34 -20 26 -21 67 -27 67 -11 0 39 -47 71 -105 71 -27 0
-44 -8 -66 -29z"/>
<path d="M2108 592 c-26 -25 -31 -36 -31 -75 0 -25 7 -56 16 -70 23 -35 77
-52 122 -37 32 10 65 42 65 62 0 15 -58 8 -64 -7 -7 -18 -57 -20 -74 -3 -29
29 -13 38 62 38 41 0 78 5 81 10 4 6 1 26 -5 45 -22 68 -115 87 -172 37z m103
-22 c38 -21 23 -40 -31 -40 -37 0 -50 4 -50 15 0 28 47 43 81 25z"/>
<path d="M2330 515 l0 -105 25 0 c24 0 25 2 25 63 0 70 10 87 52 87 24 0 28 4
28 30 0 35 -21 40 -58 14 -20 -14 -22 -14 -22 0 0 10 -9 16 -25 16 l-25 0 0
-105z"/>
<path d="M2502 604 c-24 -17 -30 -67 -10 -81 7 -4 33 -15 58 -24 32 -11 45
-21 45 -35 0 -24 -37 -31 -55 -9 -14 17 -60 21 -60 5 0 -19 39 -49 74 -55 54
-11 90 12 94 57 3 40 5 39 -90 77 -16 6 -28 17 -28 26 0 20 59 20 66 0 7 -17
54 -21 54 -5 0 6 -11 22 -25 35 -29 29 -88 34 -123 9z"/>
<path d="M1535 270 c-3 -5 1 -10 10 -10 9 0 13 5 10 10 -3 6 -8 10 -10 10 -2
0 -7 -4 -10 -10z"/>
<path d="M682 254 c-32 -22 -31 -88 2 -109 29 -19 72 -11 87 16 12 23 3 25
-17 4 -20 -19 -48 -19 -68 1 -19 18 -20 38 -6 65 14 25 65 26 79 2 5 -10 13
-14 18 -10 10 11 -33 47 -56 47 -9 0 -27 -7 -39 -16z"/>
<path d="M1900 260 c0 -5 9 -10 20 -10 18 0 20 -7 20 -60 0 -33 4 -60 10 -60
6 0 10 27 10 60 0 47 3 60 15 60 8 0 15 5 15 10 0 6 -20 10 -45 10 -25 0 -45
-4 -45 -10z"/>
<path d="M2163 200 c0 -41 2 -58 4 -37 2 20 2 54 0 75 -2 20 -4 3 -4 -38z"/>
<path d="M1457 248 c-2 -7 -1 -33 2 -57 5 -33 11 -46 29 -52 13 -5 22 -5 22 1
0 6 -7 10 -15 10 -10 0 -15 11 -15 35 0 24 5 35 15 35 8 0 15 5 15 10 0 6 -7
10 -15 10 -8 0 -15 5 -15 10 0 14 -17 12 -23 -2z"/>
<path d="M2469 248 c-5 -42 5 -95 19 -106 19 -15 32 -16 32 -2 0 6 -7 10 -15
10 -10 0 -15 11 -15 35 0 24 5 35 15 35 8 0 15 5 15 10 0 6 -7 10 -15 10 -8 0
-15 5 -15 10 0 15 -20 12 -21 -2z"/>
<path d="M828 229 c-27 -15 -22 -61 8 -82 23 -17 27 -18 49 -3 60 39 4 121
-57 85z m57 -44 c0 -35 -31 -47 -51 -20 -18 25 0 57 29 53 17 -2 22 -10 22
-33z"/>
<path d="M940 185 c0 -65 17 -74 22 -12 3 37 6 42 28 42 22 0 25 -5 28 -42 4
-52 22 -58 22 -7 0 63 -35 95 -68 62 -9 -9 -12 -9 -12 0 0 7 -4 12 -10 12 -5
0 -10 -25 -10 -55z"/>
<path d="M1070 185 c0 -30 5 -55 10 -55 6 0 10 18 10 40 0 28 5 42 18 49 27
14 42 -5 42 -51 0 -21 5 -38 10 -38 13 0 13 66 0 91 -12 21 -40 25 -58 7 -9
-9 -12 -9 -12 0 0 7 -4 12 -10 12 -5 0 -10 -25 -10 -55z"/>
<path d="M1216 224 c-24 -24 -20 -59 10 -79 24 -15 27 -15 51 0 29 19 25 32
-5 14 -11 -7 -26 -10 -34 -6 -20 7 -21 64 -1 71 18 7 43 -10 43 -31 0 -8 5
-11 10 -8 6 3 10 10 10 15 0 15 -31 40 -50 40 -10 0 -26 -7 -34 -16z"/>
<path d="M1348 229 c-26 -15 -24 -75 2 -89 25 -14 56 -5 65 18 5 14 4 15 -6 5
-18 -18 -56 -16 -63 3 -16 42 30 74 62 42 7 -7 12 -8 12 -2 0 29 -40 42 -72
23z"/>
<path d="M1543 185 c0 -33 2 -45 4 -27 2 18 2 45 0 60 -2 15 -4 0 -4 -33z"/>
<path d="M1590 184 c0 -64 17 -73 22 -11 3 37 6 42 28 42 22 0 26 -5 31 -45 6
-46 14 -21 10 30 -3 33 -5 34 -51 36 l-40 2 0 -54z"/>
<path d="M1731 227 c-19 -19 -14 -75 8 -87 25 -13 41 -13 41 0 0 6 -6 10 -14
10 -22 0 -38 27 -31 50 5 16 14 20 33 18 25 -3 27 -7 29 -56 2 -59 -13 -75
-49 -53 -30 19 -34 5 -4 -14 24 -16 28 -16 51 -1 22 15 25 23 25 79 l0 63 -39
1 c-21 1 -43 -3 -50 -10z"/>
<path d="M2031 227 c-19 -19 -14 -75 8 -87 25 -13 41 -13 41 0 0 6 -6 10 -14
10 -22 0 -38 27 -31 50 5 16 14 20 33 18 22 -2 27 -8 29 -33 0 -16 2 -36 2
-42 1 -7 6 -13 11 -13 6 0 10 24 10 53 l0 53 -39 1 c-21 1 -43 -3 -50 -10z"/>
<path d="M2228 229 c-27 -15 -24 -75 3 -90 25 -13 69 2 69 23 0 9 -3 9 -12 0
-7 -7 -22 -12 -34 -12 -27 0 -40 27 -16 33 16 4 15 5 0 6 -33 2 -18 26 26 43
5 1 15 -10 21 -26 7 -16 15 -24 18 -19 9 14 -21 53 -41 53 -9 0 -25 -5 -34
-11z"/>
<path d="M2342 185 l1 -60 7 45 c4 25 4 52 -1 60 -5 9 -8 -8 -7 -45z"/>
<path d="M2364 228 c-5 -7 -2 -9 8 -6 25 10 41 -8 48 -54 l7 -43 2 46 c0 25
-4 50 -11 57 -15 15 -45 15 -54 0z"/>
<path d="M2552 228 c-17 -17 -15 -26 11 -39 20 -11 21 -11 8 5 -18 22 1 48 21
28 17 -17 33 -15 18 3 -15 18 -42 19 -58 3z"/>
<path d="M2598 178 c10 -12 10 -18 -2 -27 -11 -9 -18 -8 -30 5 -10 9 -19 14
-22 11 -7 -7 25 -37 39 -37 36 1 50 47 17 58 -12 4 -13 3 -2 -10z"/>
</g>
</svg>
